<svg width="40" height="40" viewBox="0 0 40 40" fill="none" xmlns="http://www.w3.org/2000/svg">
<g clip-path="url(#clip0_1_29)">
<path d="M10.8333 25H5.83333C5.37333 25 5 24.6267 5 24.1667V19.1667C5 18.7067 5.37333 18.3333 5.83333 18.3333H10.8333C11.2933 18.3333 11.6667 18.7067 11.6667 19.1667V24.1667C11.6667 24.6267 11.2933 25 10.8333 25ZM6.66667 23.3333H10V20H6.66667V23.3333Z" fill="black"/>
<path d="M10.8333 35H5.83333C5.37333 35 5 34.6267 5 34.1667V29.1667C5 28.7067 5.37333 28.3333 5.83333 28.3333H10.8333C11.2933 28.3333 11.6667 28.7067 11.6667 29.1667V34.1667C11.6667 34.6267 11.2933 35 10.8333 35ZM6.66667 33.3333H10V30H6.66667V33.3333Z" fill="black"/>
<path d="M22.5 25H17.5C17.04 25 16.6667 24.6267 16.6667 24.1667V19.1667C16.6667 18.7067 17.04 18.3333 17.5 18.3333H22.5C22.96 18.3333 23.3333 18.7067 23.3333 19.1667V24.1667C23.3333 24.6267 22.96 25 22.5 25ZM18.3333 23.3333H21.6667V20H18.3333V23.3333Z" fill="black"/>
<path d="M22.5 35H17.5C17.04 35 16.6667 34.6267 16.6667 34.1667V29.1667C16.6667 28.7067 17.04 28.3333 17.5 28.3333H22.5C22.96 28.3333 23.3333 28.7067 23.3333 29.1667V34.1667C23.3333 34.6267 22.96 35 22.5 35ZM18.3333 33.3333H21.6667V30H18.3333V33.3333Z" fill="black"/>
<path d="M34.1667 25H29.1667C28.7067 25 28.3333 24.6267 28.3333 24.1667V19.1667C28.3333 18.7067 28.7067 18.3333 29.1667 18.3333H34.1667C34.6267 18.3333 35 18.7067 35 19.1667V24.1667C35 24.6267 34.6267 25 34.1667 25ZM30 23.3333H33.3333V20H30V23.3333Z" fill="black"/>
<path d="M35.8333 40H4.16667C1.87 40 0 38.13 0 35.8333V7.5C0 5.20334 1.87 3.33334 4.16667 3.33334H35.8333C38.13 3.33334 40 5.20334 40 7.5V35.8333C40 38.13 38.13 40 35.8333 40ZM4.16667 5C2.78833 5 1.66667 6.12167 1.66667 7.5V35.8333C1.66667 37.2117 2.78833 38.3333 4.16667 38.3333H35.8333C37.2117 38.3333 38.3333 37.2117 38.3333 35.8333V7.5C38.3333 6.12167 37.2117 5 35.8333 5H4.16667Z" fill="black"/>
<path d="M39.1667 15H0.833333C0.373333 15 0 14.6267 0 14.1667C0 13.7067 0.373333 13.3333 0.833333 13.3333H39.1667C39.6267 13.3333 40 13.7067 40 14.1667C40 14.6267 39.6267 15 39.1667 15Z" fill="black"/>
<path d="M9.16666 8.33333C8.70666 8.33333 8.33333 7.95999 8.33333 7.49999V0.833328C8.33333 0.373328 8.70666 -5.72205e-06 9.16666 -5.72205e-06C9.62666 -5.72205e-06 9.99999 0.373328 9.99999 0.833328V7.49999C9.99999 7.95999 9.62666 8.33333 9.16666 8.33333Z" fill="black"/>
<path d="M30.8333 8.33333C30.3733 8.33333 30 7.95999 30 7.49999V0.833328C30 0.373328 30.3733 -5.72205e-06 30.8333 -5.72205e-06C31.2933 -5.72205e-06 31.6667 0.373328 31.6667 0.833328V7.49999C31.6667 7.95999 31.2933 8.33333 30.8333 8.33333Z" fill="black"/>
</g>
<defs>
<clipPath id="clip0_1_29">
<rect width="40" height="40" fill="white"/>
</clipPath>
</defs>
</svg>
