<svg width="48" height="48" viewBox="0 0 48 48" fill="none" xmlns="http://www.w3.org/2000/svg">
<path d="M42.3488 22.2431C40.7154 21.4266 37.6531 21.4171 37.5235 21.4171C37.1352 21.4171 36.8204 21.7319 36.8204 22.1202C36.8204 22.5085 37.1352 22.8233 37.5235 22.8233C38.3138 22.8234 40.6081 22.9451 41.7199 23.501C41.8209 23.5515 41.9281 23.5753 42.0338 23.5753C42.2917 23.5753 42.54 23.4328 42.6632 23.1865C42.8369 22.8392 42.6961 22.4168 42.3488 22.2431Z" fill="#4486FB"/>
<path d="M45.8542 32.2538L42.9503 31.4242C42.825 31.3883 42.7374 31.2723 42.7374 31.1419V30.1726C42.9737 30.0089 43.1991 29.8257 43.4097 29.6212C44.4307 28.6305 44.9929 27.3016 44.9929 25.8792V24.5417L45.2737 23.9802C45.5818 23.3638 45.7447 22.6737 45.7447 21.9847V18.3612C45.7447 17.9729 45.4298 17.6581 45.0415 17.6581H38.2753C35.8149 17.6581 33.8132 19.6598 33.8132 22.1202V22.1621C33.8132 22.7351 33.9487 23.309 34.2049 23.8214L34.565 24.5416V25.69C34.565 27.5101 35.4619 29.1431 36.8204 30.1258L36.8206 31.1417C36.8206 31.2983 36.8206 31.3632 36.24 31.5292L34.8231 31.934L30.7242 30.4435C30.7389 30.2501 30.6737 30.0534 30.5326 29.9052L29.2228 28.5292V26.2191C29.3613 26.1051 29.4978 25.9879 29.6301 25.8639C31.2824 24.3152 32.23 22.1286 32.23 19.8648V18.02C32.729 16.9342 32.9818 15.7853 32.9818 14.6021V7.08431C32.9818 6.69599 32.667 6.38118 32.2787 6.38118H21.7535C18.0494 6.38118 15.036 9.39468 15.036 13.0986V14.6023C15.036 15.7855 15.2888 16.9344 15.7878 18.0202V19.6074C15.7878 22.2358 16.9565 24.6037 18.795 26.1649V28.5292L17.4852 29.9053C17.3441 30.0535 17.2789 30.2502 17.2936 30.4436L12.9675 32.0167C12.654 32.1306 12.3627 32.2851 12.0983 32.4721L11.4189 32.1324C13.4411 31.2522 14.0817 30.0142 14.1125 29.9527C14.2115 29.7548 14.2115 29.5218 14.1125 29.3239C13.6056 28.3101 13.5442 26.4518 13.4948 24.9588C13.4784 24.4617 13.4629 23.9921 13.4332 23.574C13.1934 20.2014 10.6296 17.6581 7.46925 17.6581C4.30894 17.6581 1.74497 20.2013 1.50534 23.574C1.47562 23.9922 1.46006 24.4618 1.44366 24.959C1.39434 26.4519 1.33284 28.31 0.826031 29.3238C0.727031 29.5217 0.727031 29.7547 0.826031 29.9526C0.856781 30.0141 1.49606 31.2496 3.52228 32.1308L1.63538 33.0742C0.626625 33.579 0 34.5929 0 35.7206V40.9152C0 41.3035 0.314812 41.6183 0.703125 41.6183C1.09144 41.6183 1.40625 41.3035 1.40625 40.9152V35.7206C1.40625 35.1289 1.73503 34.5968 2.26425 34.3322L4.61391 33.1574L5.43122 33.9341C6.00272 34.4772 6.73584 34.7486 7.46925 34.7486C8.20247 34.7486 8.93597 34.477 9.50728 33.9341L10.3245 33.1575L11.0906 33.5406C10.7299 34.1178 10.5251 34.7947 10.5251 35.5037V40.9154C10.5251 41.3037 10.8399 41.6185 11.2282 41.6185C11.6166 41.6185 11.9314 41.3037 11.9314 40.9154V35.5037C11.9314 34.5384 12.5408 33.6682 13.4481 33.3383L18.0092 31.6798L19.9079 34.528C20.1506 34.8922 20.5396 35.1257 20.9751 35.1688C21.0236 35.1736 21.0719 35.1759 21.1201 35.1759C21.5043 35.1759 21.8723 35.0247 22.1473 34.7497L23.3057 33.5914V40.9155C23.3057 41.3038 23.6205 41.6186 24.0088 41.6186C24.3971 41.6186 24.7119 41.3038 24.7119 40.9155V33.5914L25.8703 34.7497C26.1453 35.0248 26.5133 35.176 26.8975 35.176C26.9456 35.176 26.994 35.1737 27.0425 35.1689C27.478 35.1258 27.867 34.8922 28.1097 34.5281L30.0085 31.68L34.5696 33.3385C35.4767 33.6684 36.0863 34.5386 36.0863 35.5039V40.9156C36.0863 41.3039 36.4011 41.6187 36.7894 41.6187C37.1777 41.6187 37.4925 41.3039 37.4925 40.9156V35.5039C37.4925 34.5262 37.1041 33.6094 36.4525 32.9313L36.6263 32.8817C36.8015 32.8316 37.0405 32.7631 37.2805 32.6454L39.0758 34.4407V40.9156C39.0758 41.3039 39.3906 41.6187 39.7789 41.6187C40.1672 41.6187 40.482 41.3039 40.482 40.9156V34.4407L42.2648 32.6579C42.3595 32.7061 42.4591 32.7468 42.5639 32.7767L45.4679 33.6064C46.1307 33.7957 46.5938 34.4095 46.5938 35.099V40.9156C46.5938 41.3039 46.9086 41.6187 47.2969 41.6187C47.6852 41.6187 48 41.3039 48 40.9156V35.099C48 33.7848 47.1176 32.6149 45.8542 32.2538ZM4.51078 31.0119C3.19556 30.5387 2.53584 29.9077 2.25422 29.5632C2.44622 29.0613 2.57072 28.4864 2.655 27.8796C3.04275 28.8093 3.69216 29.603 4.51078 30.1692V31.0119ZM8.53875 32.9149C7.93903 33.4847 6.99956 33.4846 6.40003 32.9148L5.74613 32.2934C5.85647 32.0867 5.91713 31.8523 5.91713 31.6068V30.8573C6.40763 31.0106 6.92906 31.0933 7.46944 31.0933C8.00916 31.0933 8.53031 31.0102 9.02166 30.8578L9.02156 31.6067C9.02156 31.8523 9.08212 32.0868 9.19256 32.2936L8.53875 32.9149ZM7.46963 29.6871C5.37 29.6871 3.66197 27.9789 3.66197 25.8794C3.66197 25.4911 3.34716 25.1763 2.95884 25.1763C2.91947 25.1763 2.88103 25.1803 2.84344 25.1866C2.8455 25.1261 2.84747 25.0656 2.84953 25.0056C2.86519 24.5222 2.88028 24.0655 2.90812 23.6738C2.99794 22.4105 3.50278 21.2463 4.32966 20.3956C5.16394 19.5372 6.279 19.0645 7.46944 19.0645C8.65987 19.0645 9.77484 19.5372 10.6092 20.3956C11.4361 21.2463 11.9409 22.4105 12.0308 23.6738C12.0585 24.0654 12.0737 24.522 12.0896 25.0054C12.091 25.0469 12.0924 25.089 12.0938 25.1308C11.3288 23.9522 10.1474 23.0836 8.62088 22.5931C7.21059 22.14 5.99766 22.168 5.94647 22.1693C5.76234 22.1745 5.58759 22.2516 5.45981 22.3841L4.19119 23.6998C3.92166 23.9794 3.92972 24.4245 4.20928 24.694C4.48884 24.9636 4.93397 24.9554 5.2035 24.6759L6.25912 23.5812C7.16822 23.6257 10.0929 23.9658 11.2304 26.4705C10.9442 28.3162 9.35775 29.6871 7.46963 29.6871ZM10.4277 31.0143L10.4278 30.1757C11.2458 29.6125 11.8961 28.8203 12.2842 27.8836C12.3684 28.489 12.4928 29.0626 12.6845 29.5634C12.4044 29.9046 11.7416 30.5412 10.4277 31.0143ZM17.194 19.6073V17.8628C17.194 17.757 17.1701 17.6525 17.1241 17.5571C16.6717 16.6202 16.4422 15.6261 16.4422 14.6023V13.0987C16.4422 10.1701 18.8249 7.78752 21.7535 7.78752H31.5756V14.6024C31.5756 15.6262 31.3462 16.6203 30.8937 17.5572C30.8477 17.6526 30.8238 17.7571 30.8238 17.8629V19.865C30.8238 21.7691 30.0583 23.5353 28.6684 24.8381C28.4948 25.0007 28.3147 25.1531 28.1286 25.2951C28.1244 25.298 28.1205 25.3011 28.1165 25.304C26.8144 26.2926 25.2195 26.773 23.5539 26.6651C19.9876 26.4342 17.194 23.3341 17.194 19.6073ZM21.153 33.7552C21.1481 33.7601 21.1368 33.7716 21.1138 33.7692C21.0909 33.767 21.0819 33.7536 21.0781 33.7477L18.8914 30.4676L19.5951 29.7282L22.9124 31.9957L21.153 33.7552ZM24.0089 31.0418L20.2013 28.4392V27.1267C21.1865 27.6592 22.2896 27.9923 23.4629 28.0683C23.6483 28.0803 23.8325 28.0862 24.0161 28.0862C25.3606 28.0862 26.6545 27.7648 27.8166 27.1548V28.4392L24.0089 31.0418ZM26.9397 33.7479C26.9359 33.7537 26.9269 33.7671 26.904 33.7694C26.881 33.7723 26.8698 33.7602 26.8648 33.7554L25.1054 31.996L28.4227 29.7284L29.1265 30.4678L26.9397 33.7479ZM39.7789 33.1547L38.1833 31.5592C38.2111 31.4327 38.2268 31.2942 38.2268 31.1415L38.2267 30.8448C38.6694 30.9901 39.1361 31.0763 39.619 31.0908C39.6732 31.0925 39.7269 31.0932 39.7809 31.0932C40.3146 31.0932 40.8354 31.0126 41.3312 30.8587V31.1419C41.3312 31.2821 41.3488 31.4196 41.382 31.5517L39.7789 33.1547ZM42.4304 28.6121C41.6852 29.3353 40.7007 29.7172 39.6613 29.6852C37.6266 29.6242 35.9712 27.8319 35.9712 25.6902V24.3757C35.9712 24.2665 35.9458 24.1589 35.897 24.0613L35.4626 23.1926C35.3035 22.8743 35.2194 22.5181 35.2194 22.1622V22.1203C35.2194 20.4352 36.5903 19.0644 38.2753 19.0644H44.3384V21.9847C44.3384 22.4567 44.2268 22.9293 44.0158 23.3514L43.6609 24.0613C43.612 24.159 43.5866 24.2665 43.5866 24.3757V25.8793C43.5866 26.9181 43.176 27.8886 42.4304 28.6121Z" fill="#4486FB"/>
<path d="M44.2897 35.7013C43.9013 35.7013 43.5865 36.0161 43.5865 36.4044V40.9152C43.5865 41.3035 43.9013 41.6183 44.2897 41.6183C44.678 41.6183 44.9928 41.3035 44.9928 40.9152V36.4044C44.9928 36.0162 44.678 35.7013 44.2897 35.7013Z" fill="#4486FB"/>
<path d="M3.71035 36.6307C3.32203 36.6307 3.00722 36.9456 3.00722 37.3339V40.9152C3.00722 41.3035 3.32203 41.6183 3.71035 41.6183C4.09866 41.6183 4.41347 41.3035 4.41347 40.9152V37.3339C4.41347 36.9457 4.09866 36.6307 3.71035 36.6307Z" fill="#4486FB"/>
<path d="M29.7686 14.857C27.1093 12.1977 21.5453 12.7061 19.2764 13.0481C18.5618 13.1558 18.0431 13.7606 18.0431 14.4862V16.106C18.0431 16.4943 18.3579 16.8091 18.7463 16.8091C19.1346 16.8091 19.4494 16.4943 19.4494 16.106V14.4861C19.4494 14.4622 19.4651 14.4417 19.4861 14.4385C20.3924 14.3019 22.1908 14.0912 24.0541 14.2154C26.2467 14.3614 27.8348 14.9118 28.7743 15.8513C29.0489 16.1259 29.4941 16.1259 29.7686 15.8513C30.0432 15.5767 30.0432 15.1315 29.7686 14.857Z" fill="#4486FB"/>
<path d="M15.7391 37.205C15.3508 37.205 15.036 37.5198 15.036 37.9081V40.9153C15.036 41.3036 15.3508 41.6184 15.7391 41.6184C16.1274 41.6184 16.4422 41.3036 16.4422 40.9153V37.9081C16.4422 37.5199 16.1274 37.205 15.7391 37.205Z" fill="#4486FB"/>
<path d="M32.2787 37.205C31.8904 37.205 31.5756 37.5198 31.5756 37.9081V40.9153C31.5756 41.3036 31.8904 41.6184 32.2787 41.6184C32.667 41.6184 32.9818 41.3036 32.9818 40.9153V37.9081C32.9818 37.5199 32.667 37.205 32.2787 37.205Z" fill="#4486FB"/>
</svg>
